<?xml version="1.0" encoding="UTF-8"?>
<svg id="Layer_1" data-name="Layer 1" xmlns="http://www.w3.org/2000/svg" viewBox="168 68 621 621">
  <defs>
    <style>
      .cls-1 {
        stroke-width: 0px;
      }
    </style>
  </defs>
  <path class="cls-1" d="M478.45,69.67c-170.27,0-308.3,138.03-308.3,308.3s138.03,308.3,308.3,308.3,308.3-138.03,308.3-308.3S648.71,69.67,478.45,69.67ZM428.26,511.03l11.59-48.59,104.67,21.31,60.55,47.1,16.45,32.14-98.31-28.04,16.08,31.4-54.28-41.87-56.74-13.46ZM661.24,558.74l-37.97-124.46,49.59,20.69-23.18-28.91-91.67-49.35-2.83-1.52-33.26-17.9h0s-13.26-7.14-13.26-7.14l-49.26-26.51-2.04-6.74c-.08,0-.16-.01-.25-.01-1.5-.09-3.02-.13-4.54-.13-1.11,0-2.21.02-3.3.07-6.29.25-12.39,1.24-18.21,2.87-12.77,3.58-24.24,10.26-33.54,19.19h0c-1.02.97-2.01,1.98-2.97,3.01-6.78,7.23-12.23,15.71-15.94,25.07h0c-6.94,10.7-10.01,27.45-10.01,27.45l7.17,22.69.03.1h0s.97,3.32.97,3.32l.04.13,11.22,38.07-2.72,18-4.01,26.61-26.17-4.74-23.18,8.48-3.98,25.67-31.16-40.87-54.64-12.42c-13.39-31.13-20.8-65.43-20.8-101.46,0-141.99,115.1-257.09,257.09-257.09s257.09,115.1,257.09,257.09c0,70.47-28.36,134.33-74.3,180.77ZM535.93,283.15l-1.65,1.9c.14.15.28.31.42.46l-17.83,24.95-1.69,7.19-5.48,23.28c-.08-.09-.17-.18-.26-.27-.15-4.82-1.1-9.44-2.72-13.73h0c-.28-.75-.57-1.48-.89-2.2-.65-1.46-1.38-2.87-2.18-4.23-4.85-8.23-12.4-14.68-21.43-18.13h-.01c-.63-.26-1.26-.48-1.9-.69h0s-.01,0-.02,0c-.12-.04-.23-.08-.35-.12,0,0,0,.02-.01.03-2.91-.7-5.88-1.28-8.88-1.73h0l-.14-.1c-.37-.04-.75-.07-1.12-.08h-.04s-.02,0-.03,0c-3.42-.46-6.9-.76-10.42-.88-1.17-.04-2.36-.06-3.54-.06-30.71,0-58.28,13.45-77.14,34.79-1.25,1.41-2.47,2.87-3.64,4.36h0c-8.57,10.85-15.01,23.46-18.67,37.21-1.43-6.85-2.19-13.95-2.19-21.24,0-8.92,1.13-17.58,3.26-25.84.53-2.03,1.11-4.03,1.75-6,.35-1.09.72-2.18,1.12-3.26.31-.89.64-1.76.99-2.63.19-.5.39-.99.59-1.48.39-.95.79-1.9,1.22-2.83.84-1.89,1.73-3.75,2.69-5.58.2-.37.39-.74.59-1.11.06-.11.12-.23.18-.34.47-.88.96-1.75,1.46-2.61.01-.03.03-.05.04-.08.5-.86,1.01-1.71,1.54-2.56,0-.03.03-.06.05-.09.52-.84,1.05-1.68,1.6-2.5.02-.04.04-.07.07-.1.54-.82,1.1-1.63,1.67-2.44.02-.04.05-.07.07-.11.56-.78,1.13-1.56,1.71-2.33.41-.55.83-1.09,1.24-1.63.53-.69,1.08-1.37,1.63-2.04.32-.4.65-.79.98-1.18.66-.78,1.33-1.54,2.02-2.31.34-.38.69-.76,1.03-1.13s.69-.75,1.05-1.11c.29-.3.56-.59.86-.88,1.49-1.54,3.05-3.03,4.64-4.47.37-.34.75-.68,1.14-1.02.38-.34.77-.67,1.16-1,.32-.27.64-.54.97-.81,1.32-1.11,2.67-2.17,4.05-3.2.67-.51,1.35-1,2.04-1.49.9-.64,1.82-1.28,2.75-1.89.43-.29.86-.56,1.29-.84.39-.26.78-.51,1.18-.75,3.09-1.93,6.29-3.7,9.58-5.29.46-.23.93-.45,1.4-.67.47-.22.94-.44,1.41-.65.47-.21.94-.42,1.42-.62.4-.17.8-.34,1.2-.51,2.47-1.02,4.99-1.96,7.56-2.8.4-.13.79-.26,1.19-.38.1-.03.2-.07.31-.1.15-.04.29-.09.43-.13,2.53-.77,5.08-1.44,7.68-2.01-1.41.17-2.84.25-4.3.25-2.1,0-4.15-.18-6.15-.51h0c-.15-.03-.31-.05-.47-.09-.04,0-.07,0-.1-.01-.35-.07-.7-.14-1.05-.21-.18-.04-.34-.07-.51-.12-.31-.07-.63-.14-.94-.22-.04,0-.08-.02-.12-.04-.4-.1-.81-.21-1.21-.33-.03,0-.07-.02-.1-.03-.38-.12-.75-.23-1.13-.36-.09-.03-.17-.06-.25-.09-.33-.11-.65-.23-.97-.35-.12-.04-.26-.09-.38-.15-.31-.12-.62-.24-.93-.37-.04,0-.07-.02-.1-.04-.39-.16-.78-.33-1.16-.51-.4-.18-.8-.37-1.19-.58-.4-.2-.78-.4-1.17-.62-.77-.42-1.52-.88-2.25-1.35-.37-.24-.72-.49-1.08-.74-.36-.26-.71-.51-1.06-.78-.7-.53-1.37-1.08-2.03-1.66-.33-.29-.65-.58-.97-.88s-.63-.61-.94-.92-.61-.62-.91-.94c-.29-.32-.59-.65-.87-.98-.29-.33-.56-.67-.83-1.01-.27-.34-.54-.68-.8-1.03-.32-.43-.64-.87-.93-1.32-.2-.28-.38-.56-.56-.85-.24-.37-.47-.74-.69-1.12-.23-.38-.44-.76-.65-1.15-.21-.39-.41-.78-.61-1.17-.38-.77-.74-1.56-1.07-2.36-.68-1.65-1.24-3.37-1.68-5.15,5.14,4.88,12.08,7.87,19.72,7.87,4.81,0,9.34-1.19,13.32-3.29t.01,0s.05-.03.07-.04c.19-.1.37-.2.56-.31,2.04-1.05,4.36-1.64,6.82-1.64,4.22,0,8.05,1.75,10.77,4.57-3.04-3.33-6.42-6.35-10.09-8.98-10.75-7.76-23.95-12.33-38.22-12.33-1.24,0-2.46.04-3.68.11-2.44.12-4.85.4-7.2.8-30.95,5.18-54.54,32.09-54.54,64.51,0,3.21.23,6.37.68,9.46-3.28-8.89-5.07-18.5-5.07-28.53,0-45.5,36.89-82.39,82.4-82.39,10.7,0,20.93,2.04,30.31,5.76t.01,0c4.22,1.67,8.28,3.68,12.13,6,0,0,.01.01.02.01,19.8,11.93,34.18,31.98,38.53,55.53l45.7,39.52-1.08,1.24Z"/>
</svg>